<svg xmlns="http://www.w3.org/2000/svg" xmlns:xlink="http://www.w3.org/1999/xlink" width="1000" zoomAndPan="magnify" viewBox="0 0 750 187.499995" height="250" preserveAspectRatio="xMidYMid meet" version="1.0"><defs><g/><clipPath id="id1"><path d="M 663 67 L 743 67 L 743 187 L 663 187 Z M 663 67 " clip-rule="nonzero"/></clipPath></defs><g fill="#008f95" fill-opacity="1"><g transform="translate(1.012738, 151.532335)"><g><path d="M 80.921875 -32.25 C 80.921875 -25.664062 79.25 -19.816406 75.90625 -14.703125 C 72.570312 -9.597656 67.753906 -5.628906 61.453125 -2.796875 C 55.160156 0.0351562 47.773438 1.453125 39.296875 1.453125 C 32.234375 1.453125 26.300781 0.957031 21.5 -0.03125 C 16.707031 -1.03125 11.71875 -2.765625 6.53125 -5.234375 L 6.53125 -30.796875 C 12.007812 -27.992188 17.703125 -25.800781 23.609375 -24.21875 C 29.515625 -22.644531 34.941406 -21.859375 39.890625 -21.859375 C 44.148438 -21.859375 47.269531 -22.597656 49.25 -24.078125 C 51.238281 -25.554688 52.234375 -27.457031 52.234375 -29.78125 C 52.234375 -31.238281 51.832031 -32.507812 51.03125 -33.59375 C 50.226562 -34.6875 48.941406 -35.789062 47.171875 -36.90625 C 45.410156 -38.019531 40.703125 -40.296875 33.046875 -43.734375 C 26.128906 -46.878906 20.9375 -49.925781 17.46875 -52.875 C 14.007812 -55.832031 11.441406 -59.222656 9.765625 -63.046875 C 8.097656 -66.878906 7.265625 -71.410156 7.265625 -76.640625 C 7.265625 -86.421875 10.820312 -94.046875 17.9375 -99.515625 C 25.0625 -104.992188 34.847656 -107.734375 47.296875 -107.734375 C 58.285156 -107.734375 69.492188 -105.191406 80.921875 -100.109375 L 72.140625 -77.953125 C 62.210938 -82.503906 53.640625 -84.78125 46.421875 -84.78125 C 42.691406 -84.78125 39.976562 -84.125 38.28125 -82.8125 C 36.59375 -81.507812 35.75 -79.890625 35.75 -77.953125 C 35.75 -75.867188 36.820312 -74.003906 38.96875 -72.359375 C 41.125 -70.710938 46.972656 -67.707031 56.515625 -63.34375 C 65.671875 -59.226562 72.023438 -54.804688 75.578125 -50.078125 C 79.140625 -45.359375 80.921875 -39.414062 80.921875 -32.25 Z M 80.921875 -32.25 "/></g></g></g><g fill="#008f95" fill-opacity="1"><g transform="translate(86.87951, 151.532335)"><g><path d="M 61.75 0 L 61.75 -44.890625 C 61.75 -50.367188 60.960938 -54.5 59.390625 -57.28125 C 57.816406 -60.0625 55.285156 -61.453125 51.796875 -61.453125 C 47.003906 -61.453125 43.539062 -59.539062 41.40625 -55.71875 C 39.28125 -51.894531 38.21875 -45.332031 38.21875 -36.03125 L 38.21875 0 L 9.8125 0 L 9.8125 -82.3125 L 31.234375 -82.3125 L 34.796875 -72.140625 L 36.46875 -72.140625 C 38.882812 -76.015625 42.234375 -78.921875 46.515625 -80.859375 C 50.804688 -82.796875 55.738281 -83.765625 61.3125 -83.765625 C 70.414062 -83.765625 77.5 -81.125 82.5625 -75.84375 C 87.625 -70.5625 90.15625 -63.128906 90.15625 -53.546875 L 90.15625 0 Z M 61.75 0 "/></g></g></g><g fill="#008f95" fill-opacity="1"><g transform="translate(186.548892, 151.532335)"><g><path d="M 63.5 0 L 58.046875 -10.890625 L 57.46875 -10.890625 C 53.632812 -6.148438 49.734375 -2.90625 45.765625 -1.15625 C 41.796875 0.582031 36.660156 1.453125 30.359375 1.453125 C 22.617188 1.453125 16.519531 -0.867188 12.0625 -5.515625 C 7.601562 -10.171875 5.375 -16.710938 5.375 -25.140625 C 5.375 -33.898438 8.425781 -40.421875 14.53125 -44.703125 C 20.632812 -48.992188 29.472656 -51.40625 41.046875 -51.9375 L 54.78125 -52.375 L 54.78125 -53.546875 C 54.78125 -60.328125 51.4375 -63.71875 44.75 -63.71875 C 38.75 -63.71875 31.117188 -61.679688 21.859375 -57.609375 L 13.65625 -76.359375 C 23.25 -81.296875 35.359375 -83.765625 49.984375 -83.765625 C 60.535156 -83.765625 68.707031 -81.148438 74.5 -75.921875 C 80.289062 -70.691406 83.1875 -63.378906 83.1875 -53.984375 L 83.1875 0 Z M 42.421875 -18.59375 C 45.859375 -18.59375 48.800781 -19.679688 51.25 -21.859375 C 53.695312 -24.046875 54.921875 -26.878906 54.921875 -30.359375 L 54.921875 -36.765625 L 48.390625 -36.46875 C 39.035156 -36.125 34.359375 -32.6875 34.359375 -26.15625 C 34.359375 -21.113281 37.046875 -18.59375 42.421875 -18.59375 Z M 42.421875 -18.59375 "/></g></g></g><g fill="#008f95" fill-opacity="1"><g transform="translate(279.244339, 151.532335)"><g><path d="M 27.25 -41.984375 L 2.109375 -82.3125 L 34.359375 -82.3125 L 46.859375 -59.203125 L 59.640625 -82.3125 L 91.96875 -82.3125 L 66.1875 -41.984375 L 92.984375 0 L 60.734375 0 L 46.859375 -24.984375 L 33.046875 0 L 0.71875 0 Z M 27.25 -41.984375 "/></g></g></g><g fill="#06444a" fill-opacity="1"><g transform="translate(372.970191, 151.532335)"><g><path d="M 80.921875 -32.25 C 80.921875 -25.664062 79.25 -19.816406 75.90625 -14.703125 C 72.570312 -9.597656 67.753906 -5.628906 61.453125 -2.796875 C 55.160156 0.0351562 47.773438 1.453125 39.296875 1.453125 C 32.234375 1.453125 26.300781 0.957031 21.5 -0.03125 C 16.707031 -1.03125 11.71875 -2.765625 6.53125 -5.234375 L 6.53125 -30.796875 C 12.007812 -27.992188 17.703125 -25.800781 23.609375 -24.21875 C 29.515625 -22.644531 34.941406 -21.859375 39.890625 -21.859375 C 44.148438 -21.859375 47.269531 -22.597656 49.25 -24.078125 C 51.238281 -25.554688 52.234375 -27.457031 52.234375 -29.78125 C 52.234375 -31.238281 51.832031 -32.507812 51.03125 -33.59375 C 50.226562 -34.6875 48.941406 -35.789062 47.171875 -36.90625 C 45.410156 -38.019531 40.703125 -40.296875 33.046875 -43.734375 C 26.128906 -46.878906 20.9375 -49.925781 17.46875 -52.875 C 14.007812 -55.832031 11.441406 -59.222656 9.765625 -63.046875 C 8.097656 -66.878906 7.265625 -71.410156 7.265625 -76.640625 C 7.265625 -86.421875 10.820312 -94.046875 17.9375 -99.515625 C 25.0625 -104.992188 34.847656 -107.734375 47.296875 -107.734375 C 58.285156 -107.734375 69.492188 -105.191406 80.921875 -100.109375 L 72.140625 -77.953125 C 62.210938 -82.503906 53.640625 -84.78125 46.421875 -84.78125 C 42.691406 -84.78125 39.976562 -84.125 38.28125 -82.8125 C 36.59375 -81.507812 35.75 -79.890625 35.75 -77.953125 C 35.75 -75.867188 36.820312 -74.003906 38.96875 -72.359375 C 41.125 -70.710938 46.972656 -67.707031 56.515625 -63.34375 C 65.671875 -59.226562 72.023438 -54.804688 75.578125 -50.078125 C 79.140625 -45.359375 80.921875 -39.414062 80.921875 -32.25 Z M 80.921875 -32.25 "/></g></g></g><g fill="#06444a" fill-opacity="1"><g transform="translate(458.836963, 151.532335)"><g><path d="M 61.609375 0 L 61.609375 -44.890625 C 61.609375 -55.929688 58.335938 -61.453125 51.796875 -61.453125 C 47.148438 -61.453125 43.722656 -59.503906 41.515625 -55.609375 C 39.316406 -51.710938 38.21875 -45.234375 38.21875 -36.171875 L 38.21875 0 L 9.8125 0 L 9.8125 -113.03125 L 38.21875 -113.03125 L 38.21875 -96.984375 C 38.21875 -89.722656 37.828125 -81.441406 37.046875 -72.140625 L 38.359375 -72.140625 C 41.066406 -76.398438 44.285156 -79.398438 48.015625 -81.140625 C 51.742188 -82.890625 56.082031 -83.765625 61.03125 -83.765625 C 70.226562 -83.765625 77.378906 -81.113281 82.484375 -75.8125 C 87.597656 -70.507812 90.15625 -63.085938 90.15625 -53.546875 L 90.15625 0 Z M 61.609375 0 "/></g></g></g><g fill="#06444a" fill-opacity="1"><g transform="translate(558.506345, 151.532335)"><g><path d="M 88.40625 -41.34375 C 88.40625 -27.875 84.785156 -17.375 77.546875 -9.84375 C 70.304688 -2.3125 60.171875 1.453125 47.140625 1.453125 C 34.648438 1.453125 24.710938 -2.394531 17.328125 -10.09375 C 9.941406 -17.800781 6.25 -28.21875 6.25 -41.34375 C 6.25 -54.75 9.867188 -65.171875 17.109375 -72.609375 C 24.347656 -80.046875 34.503906 -83.765625 47.578125 -83.765625 C 55.671875 -83.765625 62.816406 -82.046875 69.015625 -78.609375 C 75.210938 -75.171875 79.992188 -70.238281 83.359375 -63.8125 C 86.722656 -57.394531 88.40625 -49.90625 88.40625 -41.34375 Z M 35.09375 -41.34375 C 35.09375 -34.269531 36.035156 -28.878906 37.921875 -25.171875 C 39.804688 -21.460938 42.976562 -19.609375 47.4375 -19.609375 C 51.84375 -19.609375 54.953125 -21.460938 56.765625 -25.171875 C 58.585938 -28.878906 59.5 -34.269531 59.5 -41.34375 C 59.5 -48.363281 58.578125 -53.664062 56.734375 -57.25 C 54.898438 -60.832031 51.753906 -62.625 47.296875 -62.625 C 42.929688 -62.625 39.804688 -60.84375 37.921875 -57.28125 C 36.035156 -53.71875 35.09375 -48.40625 35.09375 -41.34375 Z M 35.09375 -41.34375 "/></g></g></g><g clip-path="url(#id1)"><g fill="#06444a" fill-opacity="1"><g transform="translate(653.308499, 151.532335)"><g><path d="M 59.203125 1.453125 C 55.035156 1.453125 51.304688 0.765625 48.015625 -0.609375 C 44.722656 -1.992188 41.457031 -4.476562 38.21875 -8.0625 L 36.90625 -8.0625 C 37.78125 -2.300781 38.21875 1.28125 38.21875 2.6875 L 38.21875 35.75 L 9.8125 35.75 L 9.8125 -82.3125 L 32.90625 -82.3125 L 36.90625 -71.84375 L 38.21875 -71.84375 C 43.488281 -79.789062 50.773438 -83.765625 60.078125 -83.765625 C 69.179688 -83.765625 76.320312 -79.984375 81.5 -72.421875 C 86.6875 -64.867188 89.28125 -54.507812 89.28125 -41.34375 C 89.28125 -28.070312 86.578125 -17.617188 81.171875 -9.984375 C 75.773438 -2.359375 68.453125 1.453125 59.203125 1.453125 Z M 49.6875 -61.453125 C 45.519531 -61.453125 42.601562 -59.960938 40.9375 -56.984375 C 39.269531 -54.015625 38.363281 -49.597656 38.21875 -43.734375 L 38.21875 -41.484375 C 38.21875 -34.410156 39.160156 -29.300781 41.046875 -26.15625 C 42.929688 -23.007812 45.910156 -21.4375 49.984375 -21.4375 C 53.617188 -21.4375 56.257812 -22.992188 57.90625 -26.109375 C 59.550781 -29.234375 60.375 -34.40625 60.375 -41.625 C 60.375 -48.695312 59.550781 -53.769531 57.90625 -56.84375 C 56.257812 -59.914062 53.519531 -61.453125 49.6875 -61.453125 Z M 49.6875 -61.453125 "/></g></g></g></g></svg>